<?xml version="1.0" standalone="no"?>
<!DOCTYPE svg PUBLIC "-//W3C//DTD SVG 20010904//EN"
 "http://www.w3.org/TR/2001/REC-SVG-20010904/DTD/svg10.dtd">
<svg version="1.0" xmlns="http://www.w3.org/2000/svg"
 width="251.000000pt" height="211.000000pt" viewBox="0 0 251.000000 211.000000"
 preserveAspectRatio="xMidYMid meet">

<g transform="translate(0.000000,211.000000) scale(0.100000,-0.100000)"
fill="#000000" stroke="none">
<path d="M303 2000 c-48 -29 -53 -64 -52 -345 0 -272 5 -304 52 -339 27 -20
40 -21 270 -21 l242 0 7 65 c5 43 19 88 43 135 68 137 171 215 328 249 27 6
27 7 27 92 0 50 -6 98 -14 119 -27 65 -30 65 -473 65 -377 0 -400 -1 -430 -20z"/>
<path d="M1153 1607 c-161 -62 -249 -252 -197 -427 21 -70 52 -117 109 -168
153 -135 379 -75 473 126 23 49 27 70 27 147 0 82 -3 97 -33 157 -34 70 -86
123 -151 155 -44 22 -182 28 -228 10z"/>
<path d="M1861 1586 c-49 -27 -50 -38 -51 -389 0 -363 1 -373 62 -398 24 -10
83 -14 220 -14 174 0 188 1 215 21 53 39 53 43 51 402 l-3 334 -33 29 -32 29
-203 0 c-148 -1 -208 -4 -226 -14z"/>
<path d="M73 1055 c-57 -24 -68 -54 -71 -195 -7 -236 7 -250 233 -250 132 0
154 2 182 20 18 11 36 32 40 47 5 15 8 91 8 168 0 159 -9 185 -70 211 -47 19
-277 19 -322 -1z"/>
<path d="M1114 786 c-163 -31 -279 -90 -385 -195 -91 -92 -131 -166 -137 -256
-4 -55 -2 -63 23 -87 15 -15 41 -30 59 -33 17 -3 291 -5 609 -3 l579 3 30 34
c28 32 30 38 25 89 -15 141 -139 292 -307 374 -52 25 -124 54 -160 63 -91 22
-249 28 -336 11z"/>
</g>
</svg>
